<svg xmlns="http://www.w3.org/2000/svg" xmlns:xlink="http://www.w3.org/1999/xlink" width="315.758" height="211.922" viewBox="0 0 315.758 211.922">
  <defs>
    <linearGradient id="linear-gradient" x1="0.5" x2="0.5" y2="1" gradientUnits="objectBoundingBox">
      <stop offset="0" stop-color="#32c109"/>
      <stop offset="0.812" stop-color="#32c109" stop-opacity="0.02"/>
      <stop offset="1" stop-color="#32c109" stop-opacity="0"/>
    </linearGradient>
  </defs>
  <g id="Group_195" data-name="Group 195" transform="translate(-294.828 -273.248)">
    <path id="Path_1544" data-name="Path 1544" d="M436.581,406.8a3.054,3.054,0,0,1,2.546,3.678c-5.942,40.177-26.314,74.7-71.018,74.7-58.569,0-73.282-58-73.282-106.1,0-47.817,14.713-105.82,73.282-105.82,44.7,0,65.076,34.519,71.018,74.413.283,2.263-.849,3.678-2.546,3.961a3.323,3.323,0,0,1-3.961-2.829c-5.659-36.783-22.918-69.038-64.511-69.038-54.324,0-66.774,55.174-66.774,99.312s12.45,99.6,66.774,99.6c41.592,0,58.852-32.538,64.511-69.038A3.323,3.323,0,0,1,436.581,406.8ZM341.23,351.623a3.339,3.339,0,0,1-2.547-3.961c3.113-15.562,10.752-33.67,29.426-33.67,29.709,0,32.255,44.139,32.255,65.076,0,21.221-2.547,65.076-32.255,65.076-18.674,0-26.313-17.825-29.426-33.387a3.5,3.5,0,0,1,2.547-3.961,3.269,3.269,0,0,1,3.961,2.546c2.264,12.166,7.923,28.294,22.918,28.294,24.333,0,25.465-41.875,25.465-58.569,0-16.41-1.131-58.286-25.465-58.286-15,0-20.655,16.128-22.918,28.011A3.462,3.462,0,0,1,341.23,351.623Z" fill="url(#linear-gradient)"/>
    <path id="Path_1545" data-name="Path 1545" d="M820.568,279.516a3.5,3.5,0,0,1,1.7,4.244L766.526,420.7h79.506a3.441,3.441,0,0,1,3.4,3.4v60.266a3.652,3.652,0,0,1-3.4,3.4,3.4,3.4,0,0,1-3.112-3.4V427.211h-81.2a3.482,3.482,0,0,1-3.112-4.81l57.437-141.187A4.178,4.178,0,0,1,820.568,279.516Zm28.86,103.839a3.652,3.652,0,0,1-3.4,3.4H821.7a3.4,3.4,0,0,1-3.112-3.4,1.7,1.7,0,0,1,.283-1.132L859.9,281.213a3.5,3.5,0,0,1,4.244-1.7c1.7.566,2.264,2.546,1.7,4.244L826.51,380.243h19.523A3.4,3.4,0,0,1,849.428,383.355Zm65.925,0a3.44,3.44,0,0,1-3.4,3.4H886.494a3.441,3.441,0,0,1-3.4-3.4V349.119a3.4,3.4,0,0,1,6.791,0v31.123h22.069A3.211,3.211,0,0,1,915.353,383.355ZM886.494,487.76a3.441,3.441,0,0,1-3.4-3.4V424.1a3.269,3.269,0,0,1,3.4-3.4h25.464a3.269,3.269,0,0,1,3.4,3.4,3.211,3.211,0,0,1-3.4,3.112H889.889v57.154A3.441,3.441,0,0,1,886.494,487.76Z" transform="translate(-304.767 -4.004)" fill="url(#linear-gradient)"/>
  </g>
</svg>
