<svg xmlns="http://www.w3.org/2000/svg" width="605.281" height="406.873" viewBox="0 0 605.281 406.873">
  <g id="Group_180" data-name="Group 180" transform="translate(-53.742 -1802.017)">
    <text id="raphic" transform="translate(418.023 2121.733)" fill="#fff" font-size="82" font-family="ProximaNova-Black, Proxima Nova" font-weight="800"><tspan x="0" y="0">raphic</tspan></text>
    <text id="Design" transform="translate(583.891 2147.877)" fill="#32c109" font-size="22" font-family="ProximaNova-Black, Proxima Nova" font-weight="800"><tspan x="0" y="0">Design</tspan></text>
    <g id="Group_176" data-name="Group 176" transform="translate(53.742 1802.017)">
      <g id="Group_175" data-name="Group 175" transform="translate(4.345 4.345)">
        <path id="Path_1001" data-name="Path 1001" d="M852.569,708.322q0-35.887,36.77-36.552,36.769-.442,36.776,35.675L924.789,864.66q0,25.106-22.9,24.661l-156.115,1.1q-81.036,0-130.687-49.653T565.434,710.081q0-81.248,49.544-130.789t129.253-50.645l149.734-.442q31.259-.442,31.266,35.669t-30.389,35.675l-17.613.877-132.114.442q-47.57.883-77.514,31.381t-29.947,77.833q0,68.489,55.49,96.01a116.084,116.084,0,0,0,52.629,12.327l89.175-1.319q17.617,1.325,17.62-15.853Zm-125.074,1.76q0-35.886,36.776-36.552,36.77-.432,36.77,35.675t-35.227,36.11Q727.488,746.2,727.495,710.081Z" transform="translate(-565.434 -528.2)" fill="#fff"/>
      </g>
      <line id="Line_28" data-name="Line 28" x2="419.069" transform="translate(24.064 4.345)" fill="none" stroke="#32c109" stroke-miterlimit="10" stroke-width="1"/>
      <ellipse id="Ellipse_129" data-name="Ellipse 129" cx="4.345" cy="4.345" rx="4.345" ry="4.345" transform="translate(19.719)" fill="#32c109"/>
      <ellipse id="Ellipse_130" data-name="Ellipse 130" cx="4.345" cy="4.345" rx="4.345" ry="4.345" transform="translate(81.475 17.933)" fill="#32c109"/>
      <ellipse id="Ellipse_131" data-name="Ellipse 131" cx="4.345" cy="4.345" rx="4.345" ry="4.345" transform="translate(10.085 89.733)" fill="#32c109"/>
      <ellipse id="Ellipse_132" data-name="Ellipse 132" cx="4.345" cy="4.345" rx="4.345" ry="4.345" transform="translate(0 120.089)" fill="#32c109"/>
      <ellipse id="Ellipse_133" data-name="Ellipse 133" cx="4.345" cy="4.345" rx="4.345" ry="4.345" transform="translate(0 246.289)" fill="#32c109"/>
      <ellipse id="Ellipse_134" data-name="Ellipse 134" cx="4.345" cy="4.345" rx="4.345" ry="4.345" transform="translate(106.397 361.812)" fill="#32c109"/>
      <ellipse id="Ellipse_135" data-name="Ellipse 135" cx="4.345" cy="4.345" rx="4.345" ry="4.345" transform="translate(384.453 362.221)" fill="#32c109"/>
      <ellipse id="Ellipse_136" data-name="Ellipse 136" cx="4.345" cy="4.345" rx="4.345" ry="4.345" transform="translate(360.68 398.183)" fill="#32c109"/>
      <ellipse id="Ellipse_137" data-name="Ellipse 137" cx="4.345" cy="4.345" rx="4.345" ry="4.345" transform="translate(360.68 145.324)" fill="#32c109"/>
      <ellipse id="Ellipse_138" data-name="Ellipse 138" cx="4.345" cy="4.345" rx="4.345" ry="4.345" transform="translate(349.563 143.496)" fill="#32c109"/>
      <ellipse id="Ellipse_139" data-name="Ellipse 139" cx="4.345" cy="4.345" rx="4.345" ry="4.345" transform="translate(289.261 143.393)" fill="#32c109"/>
      <ellipse id="Ellipse_140" data-name="Ellipse 140" cx="4.345" cy="4.345" rx="4.345" ry="4.345" transform="translate(85.922 254.478)" fill="#32c109"/>
      <ellipse id="Ellipse_141" data-name="Ellipse 141" cx="4.345" cy="4.345" rx="4.345" ry="4.345" transform="translate(72.208 234.922)" fill="#32c109"/>
      <ellipse id="Ellipse_142" data-name="Ellipse 142" cx="4.345" cy="4.345" rx="4.345" ry="4.345" transform="translate(72.208 127.09)" fill="#32c109"/>
      <ellipse id="Ellipse_143" data-name="Ellipse 143" cx="4.345" cy="4.345" rx="4.345" ry="4.345" transform="translate(84.951 120.592)" fill="#32c109"/>
      <ellipse id="Ellipse_144" data-name="Ellipse 144" cx="4.345" cy="4.345" rx="4.345" ry="4.345" transform="translate(132.221 75.166)" fill="#32c109"/>
      <ellipse id="Ellipse_145" data-name="Ellipse 145" cx="4.345" cy="4.345" rx="4.345" ry="4.345" transform="translate(162.061 297.137)" fill="#32c109"/>
      <ellipse id="Ellipse_146" data-name="Ellipse 146" cx="4.345" cy="4.345" rx="4.345" ry="4.345" transform="translate(144.521 71.641)" fill="#32c109"/>
      <ellipse id="Ellipse_147" data-name="Ellipse 147" cx="4.345" cy="4.345" rx="4.345" ry="4.345" transform="translate(356.497 71.641)" fill="#32c109"/>
      <ellipse id="Ellipse_148" data-name="Ellipse 148" cx="4.345" cy="4.345" rx="4.345" ry="4.345" transform="translate(359.861 56.519)" fill="#32c109"/>
      <ellipse id="Ellipse_149" data-name="Ellipse 149" cx="4.345" cy="4.345" rx="4.345" ry="4.345" transform="translate(359.861 10.174)" fill="#32c109"/>
      <ellipse id="Ellipse_150" data-name="Ellipse 150" cx="4.345" cy="4.345" rx="4.345" ry="4.345" transform="translate(286.964 154.267)" fill="#32c109"/>
      <ellipse id="Ellipse_151" data-name="Ellipse 151" cx="4.345" cy="4.345" rx="4.345" ry="4.345" transform="translate(324.415 289.562)" fill="#32c109"/>
      <ellipse id="Ellipse_152" data-name="Ellipse 152" cx="4.345" cy="4.345" rx="4.345" ry="4.345" transform="translate(121.128 289.562)" fill="#32c109"/>
      <ellipse id="Ellipse_153" data-name="Ellipse 153" cx="4.345" cy="4.345" rx="4.345" ry="4.345" transform="translate(286.964 291.25)" fill="#32c109"/>
      <ellipse id="Ellipse_154" data-name="Ellipse 154" cx="4.345" cy="4.345" rx="4.345" ry="4.345" transform="translate(10.387 272.475)" fill="#32c109"/>
      <ellipse id="Ellipse_155" data-name="Ellipse 155" cx="4.345" cy="4.345" rx="4.345" ry="4.345" transform="translate(86.772 349.739)" fill="#32c109"/>
      <ellipse id="Ellipse_156" data-name="Ellipse 156" cx="4.345" cy="4.345" rx="4.345" ry="4.345" transform="translate(439.198)" fill="#32c109"/>
      <line id="Line_29" data-name="Line 29" y1="70.392" x2="70.392" transform="translate(15.957 22.567)" fill="none" stroke="#32c109" stroke-miterlimit="10" stroke-width="1"/>
      <line id="Line_30" data-name="Line 30" y2="121.855" transform="translate(4.345 128.779)" fill="none" stroke="#32c109" stroke-miterlimit="10" stroke-width="1"/>
      <line id="Line_31" data-name="Line 31" x2="75.721" y2="75.721" transform="translate(15.652 278.619)" fill="none" stroke="#32c109" stroke-miterlimit="10" stroke-width="1"/>
      <line id="Line_32" data-name="Line 32" x2="274.121" transform="translate(113.038 366.157)" fill="none" stroke="#32c109" stroke-miterlimit="10" stroke-width="1"/>
      <line id="Line_33" data-name="Line 33" y2="248.514" transform="translate(365.025 149.669)" fill="none" stroke="#32c109" stroke-miterlimit="10" stroke-width="1"/>
      <line id="Line_34" data-name="Line 34" x2="55.298" transform="translate(296.312 147.738)" fill="none" stroke="#32c109" stroke-miterlimit="10" stroke-width="1"/>
      <line id="Line_35" data-name="Line 35" y2="130.872" transform="translate(291.309 161.805)" fill="none" stroke="#32c109" stroke-miterlimit="10" stroke-width="1"/>
      <line id="Line_36" data-name="Line 36" x2="203.287" transform="translate(125.473 293.907)" fill="none" stroke="#32c109" stroke-miterlimit="10" stroke-width="1"/>
      <line id="Line_37" data-name="Line 37" x2="212.005" transform="translate(148.865 75.986)" fill="none" stroke="#32c109" stroke-miterlimit="10" stroke-width="1"/>
      <line id="Line_38" data-name="Line 38" x2="71.86" y2="40.262" transform="translate(90.267 258.823)" fill="none" stroke="#32c109" stroke-miterlimit="10" stroke-width="1"/>
      <line id="Line_39" data-name="Line 39" y2="105.857" transform="translate(76.553 131.435)" fill="none" stroke="#32c109" stroke-miterlimit="10" stroke-width="1"/>
      <line id="Line_40" data-name="Line 40" x1="46.325" y2="44.518" transform="translate(90.267 79.486)" fill="none" stroke="#32c109" stroke-miterlimit="10" stroke-width="1"/>
      <line id="Line_41" data-name="Line 41" y2="46.345" transform="translate(364.206 14.519)" fill="none" stroke="#32c109" stroke-miterlimit="10" stroke-width="1"/>
    </g>
    <text id="ID:123456" transform="translate(454.963 1975.222)" fill="#ccc" font-size="14" font-family="Qanelas-Thin, Qanelas" font-weight="200" letter-spacing="0.494em"><tspan x="0" y="0">ID:123456</tspan></text>
    <text id="PROFESSIONAL" transform="translate(454.963 2005.142)" fill="#ccc" font-size="16" font-family="Qanelas-Thin, Qanelas" font-weight="200"><tspan x="0" y="0">PROFESSIONAL</tspan></text>
    <g id="Group_177" data-name="Group 177" transform="translate(454.23 2027.951)">
      <text id="Lorem_ipsum" data-name="Lorem ipsum" transform="translate(0 4)" fill="#ccc" font-size="4" font-family="Qanelas-Thin, Qanelas" font-weight="200"><tspan x="0" y="0">Lorem ipsum</tspan></text>
      <text id="Lorem_ipsum-2" data-name="Lorem ipsum" transform="translate(37.161 4)" fill="#ccc" font-size="4" font-family="Qanelas-Thin, Qanelas" font-weight="200"><tspan x="0" y="0">Lorem ipsum</tspan></text>
      <text id="Lorem_ipsum-3" data-name="Lorem ipsum" transform="translate(0.58 12.444)" fill="#ccc" font-size="4" font-family="Qanelas-Thin, Qanelas" font-weight="200"><tspan x="0" y="0">Lorem ipsum</tspan></text>
      <text id="Lorem_ipsum-4" data-name="Lorem ipsum" transform="translate(0.58 27.744)" fill="#ccc" font-size="4" font-family="Qanelas-Thin, Qanelas" font-weight="200"><tspan x="0" y="0">Lorem ipsum</tspan></text>
      <text id="Lorem" transform="translate(1.16 36.188)" fill="#ccc" font-size="4" font-family="Qanelas-Thin, Qanelas" font-weight="200"><tspan x="0" y="0">Lorem</tspan></text>
    </g>
    <g id="Group_178" data-name="Group 178" transform="translate(455.139 1945.703)">
      <path id="Path_1002" data-name="Path 1002" d="M1588.761,872.239h-52.546c-.8,0-1.455-.865-1.455-1.933s.652-1.933,1.455-1.933h52.546c.8,0,1.455.865,1.455,1.933S1589.564,872.239,1588.761,872.239Z" transform="translate(-1534.76 -868.374)" fill="#32c109"/>
    </g>
  </g>
</svg>
