<svg xmlns="http://www.w3.org/2000/svg" xmlns:xlink="http://www.w3.org/1999/xlink" width="281.361" height="211.922" viewBox="0 0 281.361 211.922">
  <defs>
    <linearGradient id="linear-gradient" x1="0.5" x2="0.5" y2="1" gradientUnits="objectBoundingBox">
      <stop offset="0" stop-color="#32c109"/>
      <stop offset="0.59" stop-color="#32c109" stop-opacity="0.106"/>
      <stop offset="0.736" stop-color="#32c109" stop-opacity="0.031"/>
      <stop offset="1" stop-color="#32c109" stop-opacity="0"/>
    </linearGradient>
  </defs>
  <g id="Group_188" data-name="Group 188" transform="translate(-293.753 -279.012)">
    <path id="Path_1476" data-name="Path 1476" d="M434.922,413.583a3.042,3.042,0,0,1,2.536,3.663c-5.918,40.012-26.205,74.389-70.726,74.389-58.327,0-72.98-57.764-72.98-105.666,0-47.62,14.653-105.384,72.98-105.384,44.521,0,64.808,34.377,70.726,74.107.282,2.254-.845,3.663-2.536,3.945a3.309,3.309,0,0,1-3.945-2.818c-5.636-36.631-22.824-68.753-64.245-68.753-54.1,0-66.5,54.946-66.5,98.9s12.4,99.185,66.5,99.185c41.421,0,58.609-32.4,64.245-68.753A3.309,3.309,0,0,1,434.922,413.583Zm-94.958-54.946a3.325,3.325,0,0,1-2.536-3.945c3.1-15.5,10.707-33.531,29.3-33.531,29.587,0,32.123,43.957,32.123,64.808,0,21.133-2.536,64.808-32.123,64.808-18.6,0-26.2-17.752-29.3-33.25a3.481,3.481,0,0,1,2.536-3.945,3.256,3.256,0,0,1,3.945,2.536c2.254,12.116,7.89,28.177,22.824,28.177,24.233,0,25.36-41.7,25.36-58.327,0-16.343-1.127-58.046-25.36-58.046-14.934,0-20.569,16.061-22.824,27.9A3.449,3.449,0,0,1,339.964,358.637Z" transform="translate(0 -1.036)" fill="url(#linear-gradient)"/>
    <path id="Path_1477" data-name="Path 1477" d="M789.191,476.509c71.289,29.3,118.346-27.05,98.058-71.852-7.045-15.216-18.033-18.034-12.962-21.978,38.04-31,12.962-110.456-65.372-94.958-10.143,1.691-16.343,4.79-19.724,5.635-2.536.845-3.663.564-4.508-1.691a3,3,0,0,1,1.691-3.945c77.206-31.841,129.616,30.15,106.51,80.869-2.536,6.2-6.763,11.553-11.552,16.625,40.012,39.166,7.326,119.473-73.825,103.693a143.121,143.121,0,0,1-21.133-6.481C782.428,480.736,784.964,474.819,789.191,476.509Zm5.354-41.7c35.785,18.034,70.161,0,48.747-21.133-10.426-10.144-29.3,0-29.3-8.171,0-5.072,8.453-3.1,16.906-3.1,30.713,0,32.967,45.366,0,47.057-15.216.845-26.205-2.536-39.448-9.017C787.5,438.47,790.318,432.835,794.545,434.807Zm-2.818-105.384c56.355-27.614,75.516,12.68,56.355,31.559-8.735,8.453-18.6,6.763-31,6.763-4.227,0-4.227-6.481,0-6.481,10.707,0,19.442,1.691,26.2-4.79,21.7-21.415-12.961-38.6-49.029-20.851C790.6,337.313,787.219,331.4,791.727,329.423Z" transform="translate(-323.278)" fill="url(#linear-gradient)"/>
  </g>
</svg>
