<svg xmlns="http://www.w3.org/2000/svg" xmlns:xlink="http://www.w3.org/1999/xlink" width="291.023" height="203.422" viewBox="0 0 291.023 203.422">
  <defs>
    <linearGradient id="linear-gradient" x1="0.5" x2="0.5" y2="1" gradientUnits="objectBoundingBox">
      <stop offset="0" stop-color="#32c109"/>
      <stop offset="0.205" stop-color="#32c109"/>
      <stop offset="0.293" stop-color="#32c109" stop-opacity="0.769"/>
      <stop offset="0.481" stop-color="#32c109" stop-opacity="0.278"/>
      <stop offset="0.774" stop-color="#32c109" stop-opacity="0.039"/>
      <stop offset="0.925" stop-color="#32c109" stop-opacity="0"/>
      <stop offset="1" stop-color="#32c109" stop-opacity="0"/>
    </linearGradient>
  </defs>
  <g id="Group_184" data-name="Group 184" transform="translate(-299.401 -276.038)">
    <path id="Path_1005" data-name="Path 1005" d="M434.28,408.465a2.906,2.906,0,0,1,2.423,3.5c-5.654,38.229-25.037,71.074-67.574,71.074-55.728,0-69.727-55.19-69.727-100.957,0-45.5,14-100.687,69.727-100.687,42.537,0,61.92,32.845,67.574,70.8.269,2.154-.807,3.5-2.423,3.769a3.161,3.161,0,0,1-3.769-2.692c-5.384-35-21.807-65.689-61.382-65.689-51.69,0-63.535,52.5-63.535,94.5s11.846,94.765,63.535,94.765c39.575,0,56-30.96,61.382-65.689A3.161,3.161,0,0,1,434.28,408.465Zm-90.727-52.5a3.176,3.176,0,0,1-2.423-3.769c2.962-14.807,10.23-32.037,28-32.037,28.268,0,30.691,42,30.691,61.92,0,20.191-2.423,61.92-30.691,61.92-17.768,0-25.037-16.961-28-31.768a3.326,3.326,0,0,1,2.423-3.769,3.111,3.111,0,0,1,3.769,2.423c2.154,11.576,7.538,26.922,21.806,26.922,23.153,0,24.23-39.844,24.23-55.728,0-15.615-1.077-55.459-24.23-55.459-14.268,0-19.653,15.345-21.806,26.653A3.3,3.3,0,0,1,343.553,355.967Z" transform="translate(0 -3.578)" fill="url(#linear-gradient)"/>
    <path id="Path_1006" data-name="Path 1006" d="M792.984,328.7a3.373,3.373,0,0,1,1.346-4.577c12.384-6.192,19.653-9.423,34.729-8.615a25.9,25.9,0,0,1,16.692,6.73c12.653,11.846,6.461,27.73-1.885,40.383L771.715,473H896.9a3.056,3.056,0,0,1,2.962,3.23,2.988,2.988,0,0,1-2.962,2.962H766.062a3.208,3.208,0,0,1-2.961-4.846L838.481,359.12c6.461-9.692,12.922-22.614,2.692-32.306A19.229,19.229,0,0,0,828.79,321.7c-14-.538-20.192,2.423-31.768,8.346A2.974,2.974,0,0,1,792.984,328.7Zm52.5,105h49.536a2.973,2.973,0,1,1,0,5.923h-55.19c-2.692,0-4.307-2.423-2.692-4.577l38.5-59.228c8.345-12.653,13.461-21.538,12.653-37.422a56.639,56.639,0,0,0-17.5-38.767,64.179,64.179,0,0,0-40.383-17.23c-15.615-.808-26.114,1.346-40.383,7.269a2.95,2.95,0,0,1-4.038-1.615,3.975,3.975,0,0,1,1.615-4.307c15.346-6.192,26.383-8.346,43.075-7.538A69.179,69.179,0,0,1,875.1,295.315a63.529,63.529,0,0,1,19.383,42.806c.538,17.23-4.307,27.191-13.461,41.19Z" transform="translate(-309.439 0)" fill="url(#linear-gradient)"/>
  </g>
</svg>
