<svg xmlns="http://www.w3.org/2000/svg" width="1366" height="151.529" viewBox="0 0 1366 151.529">
  <g id="Group_162" data-name="Group 162" transform="translate(0 -787.11)">
    <g id="Group_128" data-name="Group 128" transform="translate(222.197 827.43)">
      <path id="Path_965" data-name="Path 965" d="M-61.905,594.222a7.454,7.454,0,0,1-3.726-1l-27.4-15.818a7.475,7.475,0,0,1-3.726-6.455V539.317a7.474,7.474,0,0,1,3.726-6.454l27.4-15.819a7.475,7.475,0,0,1,7.453,0l27.4,15.819a7.473,7.473,0,0,1,3.727,6.454v31.637a7.475,7.475,0,0,1-3.727,6.455l-27.4,15.818A7.454,7.454,0,0,1-61.905,594.222Zm0-76.073a5.353,5.353,0,0,0-2.676.715l-27.4,15.818a5.368,5.368,0,0,0-2.676,4.635v31.637a5.367,5.367,0,0,0,2.676,4.635l27.4,15.819a5.372,5.372,0,0,0,5.353,0l27.4-15.819a5.367,5.367,0,0,0,2.676-4.635V539.317a5.368,5.368,0,0,0-2.676-4.635l-27.4-15.818A5.353,5.353,0,0,0-61.905,518.149Z" transform="translate(96.756 -516.049)" fill="#232323"/>
    </g>
    <g id="Group_129" data-name="Group 129" transform="translate(0 840.356)">
      <path id="Path_966" data-name="Path 966" d="M-189.12,761.665a7.457,7.457,0,0,1-3.726-.995l-27.4-15.819a7.472,7.472,0,0,1-3.726-6.455V706.76a7.472,7.472,0,0,1,3.726-6.454l27.4-15.819a7.475,7.475,0,0,1,7.453,0l27.4,15.819a7.473,7.473,0,0,1,3.727,6.454V738.4A7.474,7.474,0,0,1-158,744.852l-27.4,15.819A7.459,7.459,0,0,1-189.12,761.665Zm0-76.073a5.353,5.353,0,0,0-2.676.715l-27.4,15.819a5.366,5.366,0,0,0-2.676,4.635V738.4a5.367,5.367,0,0,0,2.676,4.635l27.4,15.819a5.372,5.372,0,0,0,5.353,0l27.4-15.819a5.367,5.367,0,0,0,2.676-4.635V706.76a5.366,5.366,0,0,0-2.676-4.635l-27.4-15.819A5.353,5.353,0,0,0-189.12,685.592Z" transform="translate(223.971 -683.492)" fill="#232323"/>
    </g>
    <g id="Group_131" data-name="Group 131" transform="translate(607.076 805.625)">
      <path id="Path_968" data-name="Path 968" d="M157,357.8a5.519,5.519,0,0,1-2.759-.737L135.123,346.03a5.533,5.533,0,0,1-2.759-4.778V319.177a5.533,5.533,0,0,1,2.759-4.778l19.117-11.037a5.535,5.535,0,0,1,5.518,0L178.874,314.4a5.532,5.532,0,0,1,2.759,4.778v22.074a5.532,5.532,0,0,1-2.759,4.778l-19.117,11.037A5.519,5.519,0,0,1,157,357.8Zm0-53.08a3.41,3.41,0,0,0-1.708.456l-19.117,11.037a3.426,3.426,0,0,0-1.708,2.959v22.074a3.427,3.427,0,0,0,1.708,2.959l19.117,11.038a3.428,3.428,0,0,0,3.417,0l19.117-11.038a3.428,3.428,0,0,0,1.708-2.959V319.177a3.427,3.427,0,0,0-1.708-2.959l-19.117-11.037A3.419,3.419,0,0,0,157,304.724Z" transform="translate(-132.364 -302.625)" fill="#232323"/>
    </g>
    <g id="Group_133" data-name="Group 133" transform="translate(1172.387 787.11)">
      <path id="Path_970" data-name="Path 970" d="M398.434,725.688a13.746,13.746,0,0,1-6.718-1.742l-53-29.7a13.013,13.013,0,0,1-6.719-11.3V623.538a13.014,13.014,0,0,1,6.719-11.3l53-29.7a13.829,13.829,0,0,1,13.437,0l53,29.7a13.014,13.014,0,0,1,6.719,11.3v59.408a13.013,13.013,0,0,1-6.719,11.3l-53,29.7A13.751,13.751,0,0,1,398.434,725.688Zm0-142.852a11.6,11.6,0,0,0-5.668,1.469l-53,29.7a10.98,10.98,0,0,0-5.668,9.53v59.408a10.979,10.979,0,0,0,5.668,9.53l53,29.7a11.664,11.664,0,0,0,11.336,0l53-29.7a10.979,10.979,0,0,0,5.668-9.53V623.538a10.98,10.98,0,0,0-5.668-9.53l-53-29.7A11.6,11.6,0,0,0,398.434,582.836Z" transform="translate(-331.992 -580.797)" fill="#232323"/>
    </g>
    <g id="Group_134" data-name="Group 134" transform="translate(81.178 793.749)">
      <path id="Path_971" data-name="Path 971" d="M-35.537,429.828a13.748,13.748,0,0,1-6.718-1.742l-53-29.7a13.013,13.013,0,0,1-6.718-11.295V327.679a13.012,13.012,0,0,1,6.718-11.295l53-29.7a13.827,13.827,0,0,1,13.437,0l53,29.7A13.013,13.013,0,0,1,30.9,327.679v59.408a13.014,13.014,0,0,1-6.719,11.295l-53,29.7A13.748,13.748,0,0,1-35.537,429.828Zm0-142.852a11.6,11.6,0,0,0-5.668,1.469l-53,29.7a10.98,10.98,0,0,0-5.668,9.53v59.408a10.98,10.98,0,0,0,5.668,9.529l53,29.7a11.665,11.665,0,0,0,11.336,0l53-29.7a10.98,10.98,0,0,0,5.668-9.529V327.679a10.98,10.98,0,0,0-5.668-9.53l-53-29.7A11.6,11.6,0,0,0-35.537,286.977Z" transform="translate(101.978 -284.938)" fill="#232323"/>
    </g>
    <g id="Group_135" data-name="Group 135" transform="translate(853.949 880.862)">
      <path id="Path_972" data-name="Path 972" d="M291.463,750.975v11.668a2.361,2.361,0,0,0,1.18,2.045l10.1,5.835a2.362,2.362,0,0,0,2.362,0l10.1-5.835a2.361,2.361,0,0,0,1.181-2.045V750.975a2.363,2.363,0,0,0-1.181-2.046l-10.1-5.834a2.361,2.361,0,0,0-2.362,0l-10.1,5.834A2.362,2.362,0,0,0,291.463,750.975Z" transform="translate(-291.463 -742.779)" fill="#232323"/>
    </g>
    <g id="Group_136" data-name="Group 136" transform="translate(427.727 808.463)">
      <path id="Path_973" data-name="Path 973" d="M34.2,368.878v11.668a2.362,2.362,0,0,0,1.181,2.045l10.1,5.834a2.362,2.362,0,0,0,2.362,0l10.1-5.834a2.361,2.361,0,0,0,1.18-2.045V368.878a2.362,2.362,0,0,0-1.18-2.045L47.847,361a2.362,2.362,0,0,0-2.362,0l-10.1,5.834A2.362,2.362,0,0,0,34.2,368.878Z" transform="translate(-34.2 -360.682)" fill="#232323"/>
    </g>
    <g id="Group_137" data-name="Group 137" transform="translate(376.004 831.156)">
      <path id="Path_974" data-name="Path 974" d="M4.834,456.6v8.208a1.662,1.662,0,0,0,.83,1.439l7.109,4.1a1.662,1.662,0,0,0,1.662,0l7.108-4.1a1.661,1.661,0,0,0,.831-1.439V456.6a1.661,1.661,0,0,0-.831-1.439l-7.108-4.1a1.662,1.662,0,0,0-1.662,0l-7.109,4.1A1.662,1.662,0,0,0,4.834,456.6Z" transform="translate(-4.834 -450.839)" fill="#232323"/>
    </g>
    <g id="Group_138" data-name="Group 138" transform="translate(1071.197 849.296)">
      <path id="Path_975" data-name="Path 975" d="M427.872,529.1v8.208a1.661,1.661,0,0,0,.831,1.439l7.109,4.1a1.66,1.66,0,0,0,1.661,0l7.109-4.1a1.662,1.662,0,0,0,.83-1.439V529.1a1.661,1.661,0,0,0-.83-1.439l-7.109-4.1a1.66,1.66,0,0,0-1.661,0l-7.109,4.1A1.66,1.66,0,0,0,427.872,529.1Z" transform="translate(-427.872 -523.339)" fill="#232323"/>
    </g>
    <g id="Group_139" data-name="Group 139" transform="translate(551.594 812.318)">
      <path id="Path_976" data-name="Path 976" d="M111.684,381.316v8.208a1.662,1.662,0,0,0,.83,1.439l7.109,4.1a1.662,1.662,0,0,0,1.662,0l7.108-4.1a1.661,1.661,0,0,0,.831-1.439v-8.208a1.661,1.661,0,0,0-.831-1.439l-7.108-4.1a1.662,1.662,0,0,0-1.662,0l-7.109,4.1A1.662,1.662,0,0,0,111.684,381.316Z" transform="translate(-111.684 -375.55)" fill="#232323"/>
    </g>
    <g id="Group_140" data-name="Group 140" transform="translate(575.941 818.645)">
      <path id="Path_977" data-name="Path 977" d="M126.5,406.6v8.209a1.661,1.661,0,0,0,.83,1.439l7.109,4.1a1.66,1.66,0,0,0,1.661,0l7.109-4.1a1.662,1.662,0,0,0,.83-1.439V406.6a1.662,1.662,0,0,0-.83-1.439l-7.109-4.1a1.66,1.66,0,0,0-1.661,0l-7.109,4.1A1.66,1.66,0,0,0,126.5,406.6Z" transform="translate(-126.5 -400.839)" fill="#232323"/>
    </g>
    <g id="Group_141" data-name="Group 141" transform="translate(600.249 812.318)">
      <path id="Path_978" data-name="Path 978" d="M141.291,381.316v8.208a1.662,1.662,0,0,0,.83,1.439l7.109,4.1a1.662,1.662,0,0,0,1.662,0l7.109-4.1a1.662,1.662,0,0,0,.83-1.439v-8.208a1.662,1.662,0,0,0-.83-1.439l-7.109-4.1a1.662,1.662,0,0,0-1.662,0l-7.109,4.1A1.662,1.662,0,0,0,141.291,381.316Z" transform="translate(-141.291 -375.55)" fill="#232323"/>
    </g>
    <g id="Group_142" data-name="Group 142" transform="translate(258.853 854.39)">
      <path id="Path_979" data-name="Path 979" d="M-65.744,542.356v6.266a1.268,1.268,0,0,0,.634,1.1l5.427,3.134a1.27,1.27,0,0,0,1.268,0l5.426-3.134a1.267,1.267,0,0,0,.634-1.1v-6.266a1.269,1.269,0,0,0-.634-1.1l-5.426-3.133a1.27,1.27,0,0,0-1.268,0l-5.427,3.133A1.27,1.27,0,0,0-65.744,542.356Z" transform="translate(65.744 -537.955)" fill="#232323"/>
    </g>
    <g id="Group_143" data-name="Group 143" transform="translate(277.356 859.325)">
      <path id="Path_980" data-name="Path 980" d="M-54.434,561.66v6.266a1.267,1.267,0,0,0,.634,1.1l5.426,3.133a1.267,1.267,0,0,0,1.268,0l5.427-3.133a1.268,1.268,0,0,0,.634-1.1V561.66a1.27,1.27,0,0,0-.634-1.1l-5.427-3.133a1.27,1.27,0,0,0-1.268,0l-5.426,3.133A1.269,1.269,0,0,0-54.434,561.66Z" transform="translate(54.434 -557.259)" fill="#232323"/>
    </g>
    <g id="Group_144" data-name="Group 144" transform="translate(295.827 854.39)">
      <path id="Path_981" data-name="Path 981" d="M-43.143,542.356v6.266a1.267,1.267,0,0,0,.634,1.1l5.427,3.134a1.268,1.268,0,0,0,1.268,0l5.427-3.134a1.267,1.267,0,0,0,.634-1.1v-6.266a1.269,1.269,0,0,0-.634-1.1l-5.427-3.133a1.269,1.269,0,0,0-1.268,0l-5.427,3.133A1.269,1.269,0,0,0-43.143,542.356Z" transform="translate(43.143 -537.955)" fill="#232323"/>
    </g>
    <g id="Group_146" data-name="Group 146" transform="translate(68.118 883.601)">
      <path id="Path_983" data-name="Path 983" d="M-111.626,687.2a2.737,2.737,0,0,1-1.37-.366l-7.237-4.178a2.749,2.749,0,0,1-1.371-2.374V671.93a2.749,2.749,0,0,1,1.371-2.374l7.236-4.178a2.75,2.75,0,0,1,2.742,0l7.237,4.178a2.75,2.75,0,0,1,1.371,2.374v8.356a2.748,2.748,0,0,1-1.371,2.374l-7.236,4.178A2.738,2.738,0,0,1-111.626,687.2Zm0-20.092a.642.642,0,0,0-.321.086l-7.236,4.178a.642.642,0,0,0-.32.555v8.356a.643.643,0,0,0,.32.555l7.237,4.178a.644.644,0,0,0,.641,0l7.236-4.178a.642.642,0,0,0,.321-.555V671.93a.642.642,0,0,0-.32-.555l-7.237-4.178A.64.64,0,0,0-111.626,667.111Z" transform="translate(121.604 -665.012)" fill="#232323"/>
    </g>
    <g id="Group_147" data-name="Group 147" transform="translate(538.755 787.11)">
      <path id="Path_984" data-name="Path 984" d="M96.674,287.09v17.5a3.54,3.54,0,0,0,1.77,3.066L113.6,316.4a3.54,3.54,0,0,0,3.541,0l15.152-8.748a3.54,3.54,0,0,0,1.771-3.066v-17.5a3.54,3.54,0,0,0-1.771-3.066l-15.152-8.748a3.544,3.544,0,0,0-3.541,0l-15.153,8.748A3.54,3.54,0,0,0,96.674,287.09Z" transform="translate(-96.674 -274.802)" fill="#232323"/>
    </g>
    <g id="Group_148" data-name="Group 148" transform="translate(978.776 830.226)">
      <path id="Path_985" data-name="Path 985" d="M350.406,680.907v23.149a4.686,4.686,0,0,0,2.342,4.058L372.8,719.688a4.685,4.685,0,0,0,4.685,0l20.048-11.575a4.685,4.685,0,0,0,2.343-4.058V680.907a4.685,4.685,0,0,0-2.343-4.058l-20.048-11.575a4.688,4.688,0,0,0-4.685,0l-20.048,11.575A4.686,4.686,0,0,0,350.406,680.907Z" transform="translate(-350.406 -664.647)" fill="#232323"/>
    </g>
    <g id="Group_149" data-name="Group 149" transform="translate(599.372 882.97)">
      <path id="Path_986" data-name="Path 986" d="M127.76,763.792v23.15A4.685,4.685,0,0,0,130.1,791l20.048,11.575a4.687,4.687,0,0,0,4.685,0L174.883,791a4.685,4.685,0,0,0,2.342-4.057v-23.15a4.686,4.686,0,0,0-2.342-4.057L154.835,748.16a4.683,4.683,0,0,0-4.685,0L130.1,759.735A4.686,4.686,0,0,0,127.76,763.792Z" transform="translate(-127.76 -747.533)" fill="#232323"/>
    </g>
    <g id="Group_150" data-name="Group 150" transform="translate(482.156 814.804)">
      <path id="Path_987" data-name="Path 987" d="M58.974,427.631V450.78a4.686,4.686,0,0,0,2.342,4.058l20.048,11.575a4.683,4.683,0,0,0,4.685,0L106.1,454.838a4.686,4.686,0,0,0,2.342-4.058V427.631a4.685,4.685,0,0,0-2.342-4.057L86.049,412a4.686,4.686,0,0,0-4.685,0L61.316,423.574A4.685,4.685,0,0,0,58.974,427.631Z" transform="translate(-58.974 -411.371)" fill="#232323"/>
    </g>
    <g id="Group_151" data-name="Group 151" transform="translate(62.118 787.98)">
      <path id="Path_988" data-name="Path 988" d="M-130.622,292.368v23.15a4.685,4.685,0,0,0,2.343,4.057l20.048,11.575a4.684,4.684,0,0,0,4.685,0L-83.5,319.575a4.686,4.686,0,0,0,2.342-4.057v-23.15a4.686,4.686,0,0,0-2.342-4.057l-20.048-11.575a4.684,4.684,0,0,0-4.685,0l-20.048,11.575A4.685,4.685,0,0,0-130.622,292.368Z" transform="translate(130.622 -276.109)" fill="#232323"/>
    </g>
    <g id="Group_152" data-name="Group 152" transform="translate(298.193 787.98)">
      <path id="Path_989" data-name="Path 989" d="M-48.982,292.368v23.15a4.686,4.686,0,0,0,2.342,4.057l20.048,11.575a4.684,4.684,0,0,0,4.685,0l20.048-11.575a4.685,4.685,0,0,0,2.343-4.057v-23.15a4.685,4.685,0,0,0-2.343-4.057l-20.048-11.575a4.684,4.684,0,0,0-4.685,0L-46.64,288.311A4.686,4.686,0,0,0-48.982,292.368Z" transform="translate(48.982 -276.109)" fill="#232323"/>
    </g>
    <g id="Group_153" data-name="Group 153" transform="translate(821.448 897.904)">
      <path id="Path_990" data-name="Path 990" d="M279.442,706.6v5.146a1.043,1.043,0,0,0,.52.9l4.457,2.573a1.04,1.04,0,0,0,1.041,0l4.457-2.573a1.043,1.043,0,0,0,.521-.9V706.6a1.041,1.041,0,0,0-.521-.9l-4.457-2.573a1.04,1.04,0,0,0-1.041,0l-4.457,2.573A1.041,1.041,0,0,0,279.442,706.6Z" transform="translate(-279.442 -702.989)" fill="#232323"/>
    </g>
    <g id="Group_155" data-name="Group 155" transform="translate(896.044 885.882)">
      <path id="Path_992" data-name="Path 992" d="M325.157,660.145v5.146a1.043,1.043,0,0,0,.52.9l4.457,2.573a1.043,1.043,0,0,0,1.041,0l4.457-2.573a1.043,1.043,0,0,0,.521-.9v-5.146a1.041,1.041,0,0,0-.521-.9l-4.457-2.573a1.04,1.04,0,0,0-1.041,0l-4.457,2.573A1.041,1.041,0,0,0,325.157,660.145Z" transform="translate(-325.157 -656.53)" fill="#232323"/>
    </g>
    <g id="Group_156" data-name="Group 156" transform="translate(365.023 821.708)">
      <path id="Path_993" data-name="Path 993" d="M-.272,412.129v5.146a1.042,1.042,0,0,0,.521.9l4.456,2.573a1.043,1.043,0,0,0,1.041,0l4.457-2.573a1.043,1.043,0,0,0,.521-.9v-5.146a1.041,1.041,0,0,0-.521-.9l-4.457-2.573a1.04,1.04,0,0,0-1.041,0L.249,411.227A1.04,1.04,0,0,0-.272,412.129Z" transform="translate(0.272 -408.514)" fill="#232323"/>
    </g>
    <g id="Group_158" data-name="Group 158" transform="translate(789.274 867.521)">
      <path id="Path_995" data-name="Path 995" d="M259.725,725.152V730.3a1.042,1.042,0,0,0,.521.9l4.457,2.573a1.04,1.04,0,0,0,1.041,0L270.2,731.2a1.042,1.042,0,0,0,.52-.9v-5.146a1.043,1.043,0,0,0-.52-.9l-4.457-2.573a1.043,1.043,0,0,0-1.041,0l-4.457,2.573A1.043,1.043,0,0,0,259.725,725.152Z" transform="translate(-259.725 -721.537)" fill="#232323"/>
    </g>
    <g id="Group_159" data-name="Group 159" transform="translate(321.312 874.171)">
      <path id="Path_996" data-name="Path 996" d="M-27.059,614.883v5.146a1.041,1.041,0,0,0,.521.9l4.456,2.573a1.043,1.043,0,0,0,1.041,0l4.457-2.573a1.042,1.042,0,0,0,.521-.9v-5.146a1.042,1.042,0,0,0-.521-.9l-4.457-2.573a1.043,1.043,0,0,0-1.041,0l-4.456,2.573A1.041,1.041,0,0,0-27.059,614.883Z" transform="translate(27.059 -611.268)" fill="#232323"/>
    </g>
    <g id="Group_160" data-name="Group 160" transform="translate(614.893 825.808)">
      <path id="Path_997" data-name="Path 997" d="M152.858,338.4v5.146a1.04,1.04,0,0,0,.521.9l4.456,2.573a1.041,1.041,0,0,0,1.042,0l4.456-2.573a1.04,1.04,0,0,0,.521-.9V338.4a1.042,1.042,0,0,0-.521-.9l-4.456-2.573a1.041,1.041,0,0,0-1.042,0l-4.456,2.573A1.042,1.042,0,0,0,152.858,338.4Z" transform="translate(-152.858 -334.787)" fill="#232323"/>
    </g>
    <g id="Group_161" data-name="Group 161" transform="translate(91.433 846.169)">
      <path id="Path_998" data-name="Path 998" d="M-86.568,369.964v5.146a1.042,1.042,0,0,0,.521.9l4.456,2.573a1.045,1.045,0,0,0,1.042,0l4.456-2.573a1.042,1.042,0,0,0,.521-.9v-5.146a1.04,1.04,0,0,0-.521-.9l-4.456-2.573a1.041,1.041,0,0,0-1.042,0l-4.456,2.573A1.04,1.04,0,0,0-86.568,369.964Z" transform="translate(86.568 -366.349)" fill="#232323"/>
    </g>
    <g id="Group_130" data-name="Group 130" transform="translate(1316.731 814.98)">
      <path id="Path_967" data-name="Path 967" d="M573.544,466.934a5.517,5.517,0,0,1-2.758-.737L551.669,455.16a5.534,5.534,0,0,1-2.759-4.778V428.307a5.534,5.534,0,0,1,2.759-4.778l19.117-11.037a5.533,5.533,0,0,1,5.517,0l19.117,11.037a5.532,5.532,0,0,1,2.758,4.778v22.074a5.532,5.532,0,0,1-2.758,4.778L576.3,466.2A5.517,5.517,0,0,1,573.544,466.934Zm0-53.08a3.412,3.412,0,0,0-1.708.456L552.72,425.348a3.427,3.427,0,0,0-1.709,2.959v22.074a3.427,3.427,0,0,0,1.709,2.959l19.117,11.038a3.428,3.428,0,0,0,3.417,0l19.117-11.038a3.427,3.427,0,0,0,1.709-2.959V428.307a3.427,3.427,0,0,0-1.709-2.959l-19.117-11.037A3.419,3.419,0,0,0,573.544,413.854Z" transform="translate(-548.91 -411.755)" fill="#232323"/>
    </g>
    <g id="Group_132" data-name="Group 132" transform="translate(1277.16 839.258)">
      <path id="Path_969" data-name="Path 969" d="M499.421,507.879a2.741,2.741,0,0,1-1.371-.366l-7.237-4.178a2.75,2.75,0,0,1-1.37-2.374V492.6a2.75,2.75,0,0,1,1.37-2.374l7.237-4.178a2.75,2.75,0,0,1,2.742,0l7.236,4.178A2.748,2.748,0,0,1,509.4,492.6v8.356a2.748,2.748,0,0,1-1.371,2.374l-7.236,4.178A2.739,2.739,0,0,1,499.421,507.879Zm0-20.092a.64.64,0,0,0-.321.086l-7.236,4.178a.643.643,0,0,0-.321.555v8.356a.643.643,0,0,0,.321.555l7.236,4.178a.644.644,0,0,0,.641,0l7.237-4.178a.643.643,0,0,0,.321-.555V492.6a.643.643,0,0,0-.321-.555l-7.237-4.178A.636.636,0,0,0,499.421,487.786Z" transform="translate(-489.443 -485.687)" fill="#232323"/>
    </g>
    <g id="Group_145" data-name="Group 145" transform="translate(1290.359 834.408)">
      <path id="Path_982" data-name="Path 982" d="M509.278,500.2v17.5a3.541,3.541,0,0,0,1.77,3.066l15.153,8.748a3.541,3.541,0,0,0,3.542,0l15.152-8.748a3.54,3.54,0,0,0,1.771-3.066V500.2a3.541,3.541,0,0,0-1.771-3.066l-15.152-8.748a3.544,3.544,0,0,0-3.542,0l-15.153,8.748A3.541,3.541,0,0,0,509.278,500.2Z" transform="translate(-509.278 -487.91)" fill="#232323"/>
    </g>
    <g id="Group_154" data-name="Group 154" transform="translate(1318.832 815.572)">
      <path id="Path_991" data-name="Path 991" d="M552.067,388.415v5.146a1.04,1.04,0,0,0,.521.9l4.456,2.573a1.04,1.04,0,0,0,1.041,0l4.457-2.573a1.041,1.041,0,0,0,.521-.9v-5.146a1.043,1.043,0,0,0-.521-.9l-4.457-2.573a1.04,1.04,0,0,0-1.041,0l-4.456,2.573A1.042,1.042,0,0,0,552.067,388.415Z" transform="translate(-552.067 -384.8)" fill="#232323"/>
    </g>
    <g id="Group_157" data-name="Group 157" transform="translate(1333.631 859.809)">
      <path id="Path_994" data-name="Path 994" d="M574.306,559.378v5.146a1.041,1.041,0,0,0,.521.9L579.284,568a1.04,1.04,0,0,0,1.041,0l4.457-2.573a1.041,1.041,0,0,0,.52-.9v-5.146a1.041,1.041,0,0,0-.52-.9l-4.457-2.573a1.04,1.04,0,0,0-1.041,0l-4.457,2.573A1.041,1.041,0,0,0,574.306,559.378Z" transform="translate(-574.306 -555.763)" fill="#232323"/>
    </g>
  </g>
</svg>
