<svg id="Group_179" data-name="Group 179" xmlns="http://www.w3.org/2000/svg" xmlns:xlink="http://www.w3.org/1999/xlink" width="243.563" height="211.145" viewBox="0 0 243.563 211.145">
  <defs>
    <linearGradient id="linear-gradient" x1="0.5" x2="0.5" y2="1" gradientUnits="objectBoundingBox">
      <stop offset="0" stop-color="#32c109"/>
      <stop offset="0.527" stop-color="#009637" stop-opacity="0.176"/>
      <stop offset="0.674" stop-color="#008430" stop-opacity="0"/>
      <stop offset="1" stop-color="#00802f" stop-opacity="0"/>
    </linearGradient>
  </defs>
  <path id="Path_1003" data-name="Path 1003" d="M437.385,413.325a3.042,3.042,0,0,1,2.537,3.664C434,457.02,413.7,491.412,369.164,491.412c-58.354,0-73.013-57.79-73.013-105.714,0-47.641,14.659-105.432,73.013-105.432,44.541,0,64.838,34.392,70.758,74.141.282,2.255-.845,3.665-2.537,3.947a3.311,3.311,0,0,1-3.947-2.82c-5.638-36.647-22.834-68.784-64.274-68.784-54.125,0-66.529,54.972-66.529,98.948s12.4,99.23,66.529,99.23c41.44,0,58.636-32.419,64.274-68.784A3.31,3.31,0,0,1,437.385,413.325Zm-95-54.971a3.327,3.327,0,0,1-2.537-3.947c3.1-15.5,10.713-33.547,29.318-33.547,29.6,0,32.137,43.977,32.137,64.838,0,21.143-2.537,64.838-32.137,64.838-18.605,0-26.217-17.76-29.318-33.264a3.483,3.483,0,0,1,2.537-3.947,3.258,3.258,0,0,1,3.947,2.537c2.255,12.122,7.893,28.19,22.834,28.19,24.244,0,25.371-41.721,25.371-58.354,0-16.35-1.128-58.072-25.371-58.072-14.941,0-20.579,16.069-22.834,27.908A3.451,3.451,0,0,1,342.383,358.354Z" transform="translate(-296.151 -280.267)" fill="url(#linear-gradient)"/>
  <path id="Path_1004" data-name="Path 1004" d="M857.235,494.06a3.2,3.2,0,0,1-3.1-3.383v-197.9H788.169a3.638,3.638,0,0,1-3.383-3.383,3.428,3.428,0,0,1,3.383-3.383h69.066a3.257,3.257,0,0,1,3.383,3.383V490.677A3.257,3.257,0,0,1,857.235,494.06ZM784.786,329.711a3.428,3.428,0,0,1,3.383-3.383h28.754a3.257,3.257,0,0,1,3.383,3.383V490.677a3.257,3.257,0,0,1-3.383,3.383,3.2,3.2,0,0,1-3.1-3.383V332.812H788.169A3.385,3.385,0,0,1,784.786,329.711Z" transform="translate(-617.055 -284.043)" fill="url(#linear-gradient)"/>
</svg>
