<svg id="undraw_server_cluster_jwwq" xmlns="http://www.w3.org/2000/svg" width="528.881" height="423.348" viewBox="0 0 528.881 423.348">
  <path id="Path_1478" data-name="Path 1478" d="M495.753,489.047A154.891,154.891,0,1,1,605.278,443.68a154.891,154.891,0,0,1-109.525,45.366Zm0-308.591c-84.75,0-153.7,68.95-153.7,153.7s68.95,153.7,153.7,153.7,153.7-68.949,153.7-153.7-68.95-153.7-153.7-153.7Z" transform="translate(-230.755 -128.831)" fill="#ccc"/>
  <rect id="Rectangle_48" data-name="Rectangle 48" width="156.044" height="116.14" transform="translate(322.51 227.4) rotate(90)" fill="#2f2e41"/>
  <rect id="Rectangle_49" data-name="Rectangle 49" width="156.044" height="61.941" transform="translate(186.419 222.635)" fill="#3f3d56"/>
  <rect id="Rectangle_50" data-name="Rectangle 50" width="156.044" height="61.941" transform="translate(186.419 291.723)" fill="#3f3d56"/>
  <rect id="Rectangle_51" data-name="Rectangle 51" width="156.044" height="61.941" transform="translate(186.419 360.811)" fill="#3f3d56"/>
  <rect id="Rectangle_52" data-name="Rectangle 52" width="156.044" height="9.529" transform="translate(186.419 248.898)" fill="#32c109"/>
  <rect id="Rectangle_53" data-name="Rectangle 53" width="156.044" height="9.529" transform="translate(186.419 317.986)" fill="#32c109"/>
  <rect id="Rectangle_54" data-name="Rectangle 54" width="156.044" height="9.529" transform="translate(186.419 387.074)" fill="#32c109"/>
  <circle id="Ellipse_162" data-name="Ellipse 162" cx="3.574" cy="3.574" r="3.574" transform="translate(308.514 227.995)" fill="#32c109"/>
  <circle id="Ellipse_163" data-name="Ellipse 163" cx="3.574" cy="3.574" r="3.574" transform="translate(321.022 227.995)" fill="#32c109"/>
  <circle id="Ellipse_164" data-name="Ellipse 164" cx="3.574" cy="3.574" r="3.574" transform="translate(333.529 227.995)" fill="#32c109"/>
  <circle id="Ellipse_165" data-name="Ellipse 165" cx="3.574" cy="3.574" r="3.574" transform="translate(308.514 295.892)" fill="#32c109"/>
  <circle id="Ellipse_166" data-name="Ellipse 166" cx="3.574" cy="3.574" r="3.574" transform="translate(321.022 295.892)" fill="#32c109"/>
  <circle id="Ellipse_167" data-name="Ellipse 167" cx="3.574" cy="3.574" r="3.574" transform="translate(333.529 295.892)" fill="#32c109"/>
  <circle id="Ellipse_168" data-name="Ellipse 168" cx="3.574" cy="3.574" r="3.574" transform="translate(308.514 363.789)" fill="#32c109"/>
  <circle id="Ellipse_169" data-name="Ellipse 169" cx="3.574" cy="3.574" r="3.574" transform="translate(321.022 363.789)" fill="#32c109"/>
  <circle id="Ellipse_170" data-name="Ellipse 170" cx="3.574" cy="3.574" r="3.574" transform="translate(333.529 363.789)" fill="#32c109"/>
  <rect id="Rectangle_55" data-name="Rectangle 55" width="528.881" height="1.191" transform="translate(0 422.156)" fill="#3f3d56"/>
  <path id="Path_1479" data-name="Path 1479" d="M356.779,359.727V470.5a8.74,8.74,0,0,1-8.737,8.739h-43.05a8.741,8.741,0,0,1-8.742-8.74V359.727a8.741,8.741,0,0,1,8.742-8.739h5.222a4.156,4.156,0,0,0,3.845,5.721H338.6a4.156,4.156,0,0,0,3.845-5.721h5.594a8.74,8.74,0,0,1,8.739,8.737Z" transform="translate(-212.719 -198.285)" fill="#e6e6e6"/>
  <rect id="Rectangle_56" data-name="Rectangle 56" width="54.794" height="76.235" transform="translate(86.398 173.858)" fill="#fff"/>
  <rect id="Rectangle_57" data-name="Rectangle 57" width="21.87" height="1.25" transform="translate(101.956 226.28)" fill="#e6e6e6"/>
  <rect id="Rectangle_58" data-name="Rectangle 58" width="33.84" height="1.25" transform="translate(101.934 230.869)" fill="#32c109"/>
  <rect id="Rectangle_59" data-name="Rectangle 59" width="26.556" height="1.25" transform="translate(101.934 235.191)" fill="#e6e6e6"/>
  <rect id="Rectangle_60" data-name="Rectangle 60" width="15.621" height="1.25" transform="translate(101.934 239.515)" fill="#e6e6e6"/>
  <rect id="Rectangle_61" data-name="Rectangle 61" width="23.432" height="1.25" transform="translate(101.934 243.838)" fill="#e6e6e6"/>
  <rect id="Rectangle_62" data-name="Rectangle 62" width="2.499" height="2.499" transform="translate(92.038 225.921)" fill="#e6e6e6"/>
  <rect id="Rectangle_63" data-name="Rectangle 63" width="2.499" height="2.499" transform="translate(92.038 230.243)" fill="#32c109"/>
  <rect id="Rectangle_64" data-name="Rectangle 64" width="2.499" height="2.499" transform="translate(92.038 234.567)" fill="#e6e6e6"/>
  <rect id="Rectangle_65" data-name="Rectangle 65" width="2.499" height="2.499" transform="translate(92.038 238.89)" fill="#e6e6e6"/>
  <rect id="Rectangle_66" data-name="Rectangle 66" width="2.499" height="2.499" transform="translate(92.038 243.213)" fill="#e6e6e6"/>
  <rect id="Rectangle_67" data-name="Rectangle 67" width="22.035" height="22.035" transform="translate(102.888 183.387)" fill="#e6e6e6"/>
  <rect id="Rectangle_68" data-name="Rectangle 68" width="146.445" height="93.79" transform="translate(191.25 0.083)" fill="#e6e6e6"/>
  <rect id="Rectangle_69" data-name="Rectangle 69" width="121.417" height="45.881" transform="translate(202.289 26.322)" fill="#fff"/>
  <rect id="Rectangle_70" data-name="Rectangle 70" width="29.14" height="1.665" transform="translate(224.411 34.271)" fill="#e6e6e6"/>
  <rect id="Rectangle_71" data-name="Rectangle 71" width="45.089" height="1.665" transform="translate(224.382 40.385)" fill="#32c109"/>
  <rect id="Rectangle_72" data-name="Rectangle 72" width="35.385" height="1.665" transform="translate(224.382 46.146)" fill="#e6e6e6"/>
  <rect id="Rectangle_73" data-name="Rectangle 73" width="20.814" height="1.665" transform="translate(224.382 51.906)" fill="#e6e6e6"/>
  <rect id="Rectangle_74" data-name="Rectangle 74" width="31.222" height="1.665" transform="translate(224.382 57.666)" fill="#e6e6e6"/>
  <rect id="Rectangle_75" data-name="Rectangle 75" width="3.33" height="3.33" transform="translate(211.196 33.792)" fill="#e6e6e6"/>
  <rect id="Rectangle_76" data-name="Rectangle 76" width="3.33" height="3.33" transform="translate(211.196 39.553)" fill="#32c109"/>
  <rect id="Rectangle_77" data-name="Rectangle 77" width="3.33" height="3.33" transform="translate(211.196 45.313)" fill="#e6e6e6"/>
  <rect id="Rectangle_78" data-name="Rectangle 78" width="3.33" height="3.33" transform="translate(211.196 51.073)" fill="#e6e6e6"/>
  <rect id="Rectangle_79" data-name="Rectangle 79" width="3.33" height="3.33" transform="translate(211.196 56.833)" fill="#e6e6e6"/>
  <rect id="Rectangle_80" data-name="Rectangle 80" width="29.814" height="29.814" transform="translate(287.934 32.071)" fill="#e6e6e6"/>
  <rect id="Rectangle_81" data-name="Rectangle 81" width="146.445" height="6.222" transform="translate(191.187)" fill="#32c109"/>
  <circle id="Ellipse_171" data-name="Ellipse 171" cx="1.249" cy="1.249" r="1.249" transform="translate(194.561 1.932)" fill="#fff"/>
  <circle id="Ellipse_172" data-name="Ellipse 172" cx="1.249" cy="1.249" r="1.249" transform="translate(198.938 1.932)" fill="#fff"/>
  <circle id="Ellipse_173" data-name="Ellipse 173" cx="1.249" cy="1.249" r="1.249" transform="translate(203.315 1.932)" fill="#fff"/>
  <rect id="Rectangle_82" data-name="Rectangle 82" width="35.735" height="18.463" transform="translate(400.025 175.583)" fill="#e6e6e6"/>
  <rect id="Rectangle_83" data-name="Rectangle 83" width="35.735" height="18.463" transform="translate(400.025 241.693)" fill="#e6e6e6"/>
  <circle id="Ellipse_174" data-name="Ellipse 174" cx="29.779" cy="29.779" r="29.779" transform="translate(388.113 188.091)" fill="#e6e6e6"/>
  <circle id="Ellipse_175" data-name="Ellipse 175" cx="23.228" cy="23.228" r="23.228" transform="translate(394.665 194.642)" fill="#fff"/>
  <rect id="Rectangle_84" data-name="Rectangle 84" width="18.015" height="1.029" transform="translate(410.286 211.506)" fill="#e2e2e2"/>
  <rect id="Rectangle_85" data-name="Rectangle 85" width="27.874" height="1.029" transform="translate(410.268 215.286)" fill="#32c109"/>
  <rect id="Rectangle_86" data-name="Rectangle 86" width="21.875" height="1.029" transform="translate(410.268 218.847)" fill="#e2e2e2"/>
  <rect id="Rectangle_87" data-name="Rectangle 87" width="12.868" height="1.029" transform="translate(410.268 222.408)" fill="#e2e2e2"/>
  <rect id="Rectangle_88" data-name="Rectangle 88" width="19.301" height="1.029" transform="translate(410.268 225.969)" fill="#e2e2e2"/>
  <rect id="Rectangle_89" data-name="Rectangle 89" width="2.059" height="2.059" transform="translate(402.117 211.21)" fill="#e2e2e2"/>
  <rect id="Rectangle_90" data-name="Rectangle 90" width="2.059" height="2.059" transform="translate(402.117 214.771)" fill="#32c109"/>
  <rect id="Rectangle_91" data-name="Rectangle 91" width="2.059" height="2.059" transform="translate(402.117 218.332)" fill="#e2e2e2"/>
  <rect id="Rectangle_92" data-name="Rectangle 92" width="2.059" height="2.059" transform="translate(402.117 221.893)" fill="#e2e2e2"/>
  <rect id="Rectangle_93" data-name="Rectangle 93" width="2.059" height="2.059" transform="translate(402.117 225.454)" fill="#e2e2e2"/>
</svg>
