<svg id="undraw_folder_re_apfp" xmlns="http://www.w3.org/2000/svg" width="535.158" height="380.58" viewBox="0 0 535.158 380.58">
  <path id="Path_1480" data-name="Path 1480" d="M646.528,575.788a30.369,30.369,0,0,1-24.494-9.137c-4.112-4.335-6.934-9.915-9.662-15.312-.794-1.57-1.615-3.194-2.451-4.751a9.692,9.692,0,0,1,1.006-10.813,9.529,9.529,0,0,1,10.172-3.25l.4.115,3.584,13.984c.535-2.086,1.682-6.786,2.407-11.39l.061-.386.357.159a48.745,48.745,0,0,1,10.473,6.311,50.242,50.242,0,0,1,18.787,37.836l.009.435-10.646-3.8Z" transform="translate(-228.939 -200.135)" fill="#f2f2f2"/>
  <path id="Path_1481" data-name="Path 1481" d="M751.281,608.8l-173.913.192a.743.743,0,0,1,0-1.486l173.913-.192a.743.743,0,0,1,0,1.486Z" transform="translate(-216.868 -228.407)" fill="#cacaca"/>
  <path id="Path_1482" data-name="Path 1482" d="M83.171,108.148h-6.5a2.34,2.34,0,0,0-2.34,2.34h0a2.34,2.34,0,0,1-2.34,2.34H50.33a2.34,2.34,0,0,1-2.34-2.34l-.428-2.372.028.032-.028-.032-3.927-5.006a1.363,1.363,0,0,0-1.091-.53H35.179a1.388,1.388,0,0,0-1.387,1.387l-.152,4.15H30.856a4.453,4.453,0,0,0-4.453,4.453v29a3.952,3.952,0,0,0,3.952,3.952H83.171a3.955,3.955,0,0,0,3.95-3.952V112.1a3.95,3.95,0,0,0-3.95-3.95h0Z" transform="translate(-9.93 -38.58)" fill="#f2f2f2"/>
  <path id="Path_1483" data-name="Path 1483" d="M52.018,107.945H38.246v-4.15a1.388,1.388,0,0,1,1.387-1.387H47a1.363,1.363,0,0,1,1.091.53l3.929,5.006Z" transform="translate(-14.384 -38.515)" fill="#e6e6e6"/>
  <path id="Path_1484" data-name="Path 1484" d="M56.1,159.192H33.11a2.749,2.749,0,0,1-2.745-2.745v-6.289a2.749,2.749,0,0,1,2.745-2.745h27.6a2.749,2.749,0,0,1,2.745,2.745v1.684a7.358,7.358,0,0,1-7.35,7.35Z" transform="translate(-11.42 -55.441)" fill="#fff"/>
  <path id="Path_1485" data-name="Path 1485" d="M41.111,153.338H35.435a1.392,1.392,0,0,1-.009-2.784h5.685a1.392,1.392,0,0,1,.009,2.784Z" transform="translate(-12.802 -56.623)" fill="#f2f2f2"/>
  <path id="Path_1486" data-name="Path 1486" d="M60.387,160.375H35.435a1.392,1.392,0,0,1-.009-2.784h24.96a1.392,1.392,0,0,1,.009,2.784h-.009Z" transform="translate(-12.802 -59.269)" fill="#f2f2f2"/>
  <path id="Path_1487" data-name="Path 1487" d="M83.171,254.148h-6.5a2.34,2.34,0,0,0-2.34,2.34h0a2.34,2.34,0,0,1-2.34,2.34H50.33a2.34,2.34,0,0,1-2.34-2.34l-.428-2.372.028.032-.028-.032-3.927-5.006a1.363,1.363,0,0,0-1.091-.53H35.179a1.388,1.388,0,0,0-1.387,1.387l-.152,4.15H30.856a4.453,4.453,0,0,0-4.453,4.453v29a3.952,3.952,0,0,0,3.952,3.952H83.171a3.955,3.955,0,0,0,3.95-3.952V258.1a3.95,3.95,0,0,0-3.95-3.95h0Z" transform="translate(-9.93 -93.49)" fill="#f2f2f2"/>
  <path id="Path_1488" data-name="Path 1488" d="M52.018,253.945H38.246v-4.15a1.388,1.388,0,0,1,1.387-1.387H47a1.363,1.363,0,0,1,1.091.53l3.929,5.006Z" transform="translate(-14.384 -93.425)" fill="#e6e6e6"/>
  <path id="Path_1489" data-name="Path 1489" d="M56.1,305.192H33.11a2.749,2.749,0,0,1-2.745-2.745v-6.289a2.749,2.749,0,0,1,2.745-2.746h27.6a2.749,2.749,0,0,1,2.745,2.746v1.684A7.358,7.358,0,0,1,56.1,305.192Z" transform="translate(-11.42 -110.351)" fill="#fff"/>
  <path id="Path_1490" data-name="Path 1490" d="M41.111,299.338H35.435a1.392,1.392,0,0,1-.009-2.784h5.685a1.392,1.392,0,0,1,.009,2.784Z" transform="translate(-12.802 -111.533)" fill="#f2f2f2"/>
  <path id="Path_1491" data-name="Path 1491" d="M60.387,306.375H35.435a1.392,1.392,0,0,1-.009-2.784h24.96a1.392,1.392,0,0,1,.009,2.784h-.009Z" transform="translate(-12.802 -114.179)" fill="#f2f2f2"/>
  <path id="Path_1492" data-name="Path 1492" d="M83.171,400.148h-6.5a2.34,2.34,0,0,0-2.34,2.34h0a2.34,2.34,0,0,1-2.34,2.34H50.33a2.34,2.34,0,0,1-2.34-2.34l-.428-2.372.028.032-.028-.032-3.927-5.006a1.363,1.363,0,0,0-1.091-.53H35.179a1.388,1.388,0,0,0-1.387,1.387l-.152,4.15H30.856a4.453,4.453,0,0,0-4.453,4.453v29a3.952,3.952,0,0,0,3.952,3.952H83.171a3.955,3.955,0,0,0,3.95-3.952V404.1a3.95,3.95,0,0,0-3.95-3.95h0Z" transform="translate(-9.93 -148.4)" fill="#f2f2f2"/>
  <path id="Path_1493" data-name="Path 1493" d="M52.018,399.945H38.246v-4.15a1.388,1.388,0,0,1,1.387-1.387H47a1.363,1.363,0,0,1,1.091.53l3.929,5.006Z" transform="translate(-14.384 -148.335)" fill="#e6e6e6"/>
  <path id="Path_1494" data-name="Path 1494" d="M56.1,451.192H33.11a2.749,2.749,0,0,1-2.745-2.745v-6.289a2.749,2.749,0,0,1,2.745-2.745h27.6a2.749,2.749,0,0,1,2.745,2.745v1.684a7.358,7.358,0,0,1-7.35,7.35Z" transform="translate(-11.42 -165.261)" fill="#fff"/>
  <path id="Path_1495" data-name="Path 1495" d="M41.114,445.338H35.438a1.392,1.392,0,0,1,0-2.784h5.676a1.392,1.392,0,0,1,0,2.784Z" transform="translate(-12.805 -166.443)" fill="#f2f2f2"/>
  <path id="Path_1496" data-name="Path 1496" d="M60.39,452.375H35.438a1.392,1.392,0,0,1,0-2.784H60.39a1.392,1.392,0,1,1,0,2.784h0Z" transform="translate(-12.805 -169.089)" fill="#f2f2f2"/>
  <path id="Path_1497" data-name="Path 1497" d="M303.576,136.408a3.846,3.846,0,0,0-3.841,3.841v67.314a3.846,3.846,0,0,0,3.841,3.841h95.213a3.846,3.846,0,0,0,3.841-3.841V140.249a3.846,3.846,0,0,0-3.841-3.841H303.576Z" transform="translate(-112.729 -51.303)" fill="#e6e6e6"/>
  <path id="Path_1498" data-name="Path 1498" d="M365.992,209.575h-58.28a4.139,4.139,0,0,1-4.134-4.134V144.388a4.139,4.139,0,0,1,4.134-4.134h89.833a4.139,4.139,0,0,1,4.134,4.134v29.5a35.727,35.727,0,0,1-35.687,35.687Z" transform="translate(-114.174 -52.749)" fill="#fff"/>
  <path id="Path_1499" data-name="Path 1499" d="M357.878,165.74H344.029a1.323,1.323,0,0,1,0-2.645h13.849a1.323,1.323,0,0,1,0,2.645h0Z" transform="translate(-128.891 -61.339)" fill="#32c109"/>
  <path id="Path_1500" data-name="Path 1500" d="M388.925,174.409H344.03a1.323,1.323,0,0,1,0-2.645h44.895a1.323,1.323,0,1,1,0,2.645Z" transform="translate(-128.891 -64.6)" fill="#e6e6e6"/>
  <path id="Path_1501" data-name="Path 1501" d="M388.925,184.361H344.03a1.323,1.323,0,0,1,0-2.645h44.895a1.323,1.323,0,1,1,0,2.645Z" transform="translate(-128.891 -68.343)" fill="#e6e6e6"/>
  <path id="Path_1502" data-name="Path 1502" d="M388.925,194.314H344.03a1.323,1.323,0,0,1,0-2.645h44.895a1.323,1.323,0,1,1,0,2.645Z" transform="translate(-128.891 -72.086)" fill="#e6e6e6"/>
  <path id="Path_1503" data-name="Path 1503" d="M388.925,204.266H344.03a1.323,1.323,0,0,1,0-2.645h44.895a1.323,1.323,0,1,1,0,2.645Z" transform="translate(-128.891 -75.829)" fill="#e6e6e6"/>
  <path id="Path_1504" data-name="Path 1504" d="M375.5,202.026H356.709a6.768,6.768,0,0,0-6.768,6.768h0a6.768,6.768,0,0,1-6.768,6.768H280.515a6.768,6.768,0,0,1-6.768-6.768h0l-1.239-6.861.081.093-.081-.093-11.358-14.48a3.942,3.942,0,0,0-3.156-1.533h-21.3a4.016,4.016,0,0,0-4.011,4.011l-.44,12h-8.053a12.879,12.879,0,0,0-12.879,12.879v83.881a11.429,11.429,0,0,0,11.429,11.429H375.5a11.44,11.44,0,0,0,11.426-11.429V213.452A11.426,11.426,0,0,0,375.5,202.026h0Z" transform="translate(-79.474 -69.924)" fill="#e6e6e6"/>
  <path id="Path_1505" data-name="Path 1505" d="M285.4,201.437H245.567v-12a4.016,4.016,0,0,1,4.011-4.011h21.3a3.942,3.942,0,0,1,3.156,1.533l11.364,14.48Z" transform="translate(-92.357 -69.737)" fill="#ccc"/>
  <path id="Path_1506" data-name="Path 1506" d="M297.219,349.661H230.711a7.95,7.95,0,0,1-7.941-7.941V323.532a7.95,7.95,0,0,1,7.941-7.941h79.825a7.95,7.95,0,0,1,7.941,7.941V328.4a21.282,21.282,0,0,1-21.258,21.258Z" transform="translate(-83.783 -118.692)" fill="#fff"/>
  <path id="Path_1507" data-name="Path 1507" d="M253.861,332.727H237.445a4.027,4.027,0,0,1,0-8.053h16.416a4.027,4.027,0,1,1,.01,8.053Z" transform="translate(-87.788 -122.108)" fill="#32c109"/>
  <path id="Path_1508" data-name="Path 1508" d="M309.613,353.081H237.446a4.026,4.026,0,0,1,0-8.053h72.167a4.026,4.026,0,1,1,.01,8.053Z" transform="translate(-87.788 -129.764)" fill="#32c109"/>
  <path id="Path_1509" data-name="Path 1509" d="M355.663,41.409H1.1a1.127,1.127,0,0,1,0-2.254h354.56a1.127,1.127,0,0,1,0,2.254Z" transform="translate(0 -14.726)" fill="#cacaca"/>
  <path id="Path_1510" data-name="Path 1510" d="M785.3,583.309h-5.853l-2.784-22.577H785.3Z" transform="translate(-292.099 -210.889)" fill="#9e616a"/>
  <path id="Path_1511" data-name="Path 1511" d="M779.985,600.841h-18v-.228a7.006,7.006,0,0,1,7.006-7.006h0l3.288-2.494,6.134,2.495h1.571Z" transform="translate(-286.58 -222.315)" fill="#2f2e41"/>
  <path id="Path_1512" data-name="Path 1512" d="M752.62,551.369l-5.6,1.689-9.183-20.812,8.271-2.493Z" transform="translate(-277.496 -199.238)" fill="#9e616a"/>
  <path id="Path_1513" data-name="Path 1513" d="M754.068,569.4l-17.233,5.195-.066-.218a7.006,7.006,0,0,1,4.685-8.729h0l2.428-3.337,6.593.618,1.5-.453,2.088,6.926Z" transform="translate(-276.983 -211.483)" fill="#2f2e41"/>
  <path id="Path_1514" data-name="Path 1514" d="M734.935,367.643s-6.262,9.559-8.477,16.062c-5.429,15.937-8.025,12.114-14.277,50.862a426.977,426.977,0,0,0,16.883,47.49s12.624-3.551,12.624-5.918-8.055-31.232-9.238-34.586-3.156-4.537-1.381-7.3,16.358-26.9,16.358-26.9-.395,41.15,0,41.939,2.292,48.176,2.292,48.176,12.983,6.646,13.77-.437c.2-1.775.446-48.734.446-49.523s12.019-74.311,6.3-77.27-35.3-2.593-35.3-2.593Z" transform="translate(-267.849 -138.264)" fill="#2f2e41"/>
  <path id="Path_1515" data-name="Path 1515" d="M706.576,366.207a5.485,5.485,0,0,1,7-4.656L724.923,345.7l3.633,9.456-11.328,13.605a5.515,5.515,0,0,1-10.652-2.551h0Z" transform="translate(-265.726 -130.015)" fill="#9e616a"/>
  <path id="Path_1516" data-name="Path 1516" d="M727.125,326.957l-7.542-5.719,15.832-24.379,12.717-48.99,10.068,9.375a6.577,6.577,0,0,1,3.98,3.415c.81,1.653,2.53-1.115,1.887.61l-14.162,38.24-.02.027-22.76,27.421Z" transform="translate(-270.633 -93.223)" fill="#3f3d56"/>
  <path id="Path_1517" data-name="Path 1517" d="M757.721,244.653l-10.726,4.168-4.408,6.09L731.9,309.723l.425,1.85L731.261,313l-.418,2.144,1.036,1.784-1.819,2.235s.481,1.781,2.266,16.95c1.1,9.36,18.916,3.595,18.916,3.595l8.088-83.128-1.608-11.926Z" transform="translate(-274.572 -92.013)" fill="#3f3d56"/>
  <path id="Path_1518" data-name="Path 1518" d="M783.305,251.014l-9.254-8.278-13.684.825-7.878,9.58L737.21,332.272l32.124,2.677Z" transform="translate(-277.262 -91.292)" fill="#e6e6e6"/>
  <path id="Path_1519" data-name="Path 1519" d="M786.7,244.87l8.417,6.462,3.228,4.711a13.771,13.771,0,0,1,6.268,16.193l-10.223,36.037-.239.736c-.243.714.922,6.364.342,12.451-.151,1.586,1.689,3.353,1.55,4.918-.108,1.224-2.2,2.266-2.29,3.391-.083,1.015,1.017,1.98.952,2.855a14.583,14.583,0,0,1-1.373,4.912c-8.709,3.6-25.526.989-25.526.989l15.239-82.119L786.7,244.87Z" transform="translate(-288.769 -92.095)" fill="#3f3d56"/>
  <circle id="Ellipse_176" data-name="Ellipse 176" cx="15.148" cy="15.148" r="15.148" transform="translate(473.375 117.962)" fill="#9e616a"/>
  <path id="Path_1520" data-name="Path 1520" d="M793.337,202.361c-.879,4.979-4.435,9.9-9.4,10.851l-.094-.125a45.353,45.353,0,0,0,.361-6.51,2.525,2.525,0,0,0-4.89-.852c.089-1.9-.714-3.833-1.231-5.662s-.87-3.556-2.672-4.154a8.829,8.829,0,0,0-4.685.2c-2.133.482-3.217.37-3.409-.17l-2.368.865a1.459,1.459,0,0,1-1.681-.517l-.006-.009q-2.068.535-4.136,1.062a25.217,25.217,0,0,1-.638-2.686A7.213,7.213,0,0,0,760.9,190.9a9.139,9.139,0,0,1-2.655,1.017,6.815,6.815,0,0,1,2.49-5.479c3.261-2.619,6.532-4.225,10.708-4.015,5.051.254,6.563,5.689,11.154,3.569,5.8-2.677,11.618,11.386,10.739,16.365Z" transform="translate(-285.172 -68.603)" fill="#2f2e41"/>
  <path id="Path_1521" data-name="Path 1521" d="M654.911,228.78a3.087,3.087,0,0,0-4.336.465l-33.913,42.069a3.087,3.087,0,0,0,.465,4.336l59.5,47.969a3.087,3.087,0,0,0,4.336-.466l33.913-42.069a3.087,3.087,0,0,0-.465-4.336l-59.5-47.969Z" transform="translate(-231.668 -85.787)" fill="#ccc"/>
  <path id="Path_1522" data-name="Path 1522" d="M658.838,306.01l-36.423-29.362a3.322,3.322,0,0,1-.5-4.667l30.759-38.156a3.322,3.322,0,0,1,4.667-.5l56.142,45.258a3.322,3.322,0,0,1,.5,4.667L699.12,301.686A28.68,28.68,0,0,1,658.838,306.01Z" transform="translate(-233.623 -87.477)" fill="#fff"/>
  <path id="Path_1523" data-name="Path 1523" d="M695.546,273.972l-8.655-6.977a1.062,1.062,0,1,1,1.326-1.658l.006.005,8.655,6.977a1.062,1.062,0,0,1-1.333,1.653Z" transform="translate(-258.187 -99.704)" fill="#32c109"/>
  <path id="Path_1524" data-name="Path 1524" d="M710.58,295.032l-28.058-22.618a1.062,1.062,0,0,1,1.326-1.658l.007.005,28.058,22.618a1.062,1.062,0,0,1-1.333,1.653h0Z" transform="translate(-256.544 -101.742)" fill="#e6e6e6"/>
  <path id="Path_1525" data-name="Path 1525" d="M705.567,301.251l-28.058-22.618a1.062,1.062,0,0,1,1.326-1.658l.007.005L706.9,299.6a1.062,1.062,0,0,1-1.333,1.653Z" transform="translate(-254.659 -104.082)" fill="#e6e6e6"/>
  <path id="Path_1526" data-name="Path 1526" d="M700.553,307.471,672.5,284.853a1.062,1.062,0,0,1,1.326-1.658l.007.005,28.058,22.618a1.062,1.062,0,0,1-1.333,1.653Z" transform="translate(-252.773 -106.421)" fill="#e6e6e6"/>
  <path id="Path_1527" data-name="Path 1527" d="M695.539,313.69l-28.058-22.618a1.062,1.062,0,0,1,1.326-1.658l.007.005,28.058,22.618a1.062,1.062,0,0,1-1.333,1.653Z" transform="translate(-250.887 -108.76)" fill="#e6e6e6"/>
  <path id="Path_1528" data-name="Path 1528" d="M702.11,323.1a5.486,5.486,0,0,1,8.411,0l18.225-6.916-2.213,9.885-16.968,5.053a5.515,5.515,0,0,1-7.455-8.025h0Z" transform="translate(-263.568 -118.916)" fill="#9e616a"/>
  <path id="Path_1529" data-name="Path 1529" d="M724.08,311.4l-3.111-8.939,26.685-11.527L780.813,266.3,785,271.468a6.637,6.637,0,0,1-.98,9.335q-.139.113-.285.218L758.25,301.17l-.032.011-7.91,2.369-1.771.1-1.89.993-1.679-.546-2.325,1.745-2.669.8L724.08,311.4Z" transform="translate(-271.154 -100.155)" fill="#3f3d56"/>
  <path id="Path_1530" data-name="Path 1530" d="M473.018,381.4a16.324,16.324,0,1,1,16.324-16.324h0A16.324,16.324,0,0,1,473.018,381.4Z" transform="translate(-171.761 -131.166)" fill="#32c109"/>
  <path id="Path_1531" data-name="Path 1531" d="M484.445,368.455h-4.831v-4.831a1.61,1.61,0,0,0-3.221,0v4.831h-4.831a1.61,1.61,0,0,0,0,3.22h4.831v4.831a1.61,1.61,0,1,0,3.221,0v-4.831h4.831a1.61,1.61,0,1,0,0-3.22Z" transform="translate(-176.747 -136.152)" fill="#fff"/>
  <path id="Path_1532" data-name="Path 1532" d="M116.7,174.019a7.805,7.805,0,1,1,7.805-7.805h0a7.805,7.805,0,0,1-7.805,7.805Z" transform="translate(-40.955 -59.577)" fill="#e6e6e6"/>
  <path id="Path_1533" data-name="Path 1533" d="M122.164,169.685H116a.77.77,0,0,0,0,1.54h6.16a.77.77,0,0,0,0-1.54Z" transform="translate(-43.339 -63.818)" fill="#fff"/>
  <path id="Path_1534" data-name="Path 1534" d="M116.7,318.019a7.805,7.805,0,1,1,7.805-7.805h0a7.805,7.805,0,0,1-7.805,7.805Z" transform="translate(-40.955 -113.735)" fill="#e6e6e6"/>
  <path id="Path_1535" data-name="Path 1535" d="M122.164,313.685H116a.77.77,0,0,0,0,1.54h6.16a.77.77,0,0,0,0-1.54Z" transform="translate(-43.339 -117.976)" fill="#fff"/>
  <path id="Path_1536" data-name="Path 1536" d="M116.7,462.019a7.805,7.805,0,1,1,7.805-7.805h0a7.805,7.805,0,0,1-7.805,7.805Z" transform="translate(-40.955 -167.892)" fill="#e6e6e6"/>
  <path id="Path_1537" data-name="Path 1537" d="M122.164,457.685H116a.77.77,0,0,0,0,1.54h6.16a.77.77,0,0,0,0-1.54Z" transform="translate(-43.339 -172.134)" fill="#fff"/>
  <g id="Group_189" data-name="Group 189" transform="translate(42.686 0)">
    <ellipse id="Ellipse_177" data-name="Ellipse 177" cx="5.276" cy="5.394" rx="5.276" ry="5.394" fill="#3f3d56"/>
    <ellipse id="Ellipse_178" data-name="Ellipse 178" cx="5.276" cy="5.394" rx="5.276" ry="5.394" transform="translate(18.226)" fill="#3f3d56"/>
    <ellipse id="Ellipse_179" data-name="Ellipse 179" cx="5.276" cy="5.394" rx="5.276" ry="5.394" transform="translate(36.453)" fill="#3f3d56"/>
    <path id="Path_1538" data-name="Path 1538" d="M166.092,10.339a.622.622,0,0,1-.446-.188l-3.56-3.639a.624.624,0,0,1,0-.872L165.646,2a.624.624,0,0,1,.892.872l-3.133,3.2,3.133,3.2a.624.624,0,0,1-.446,1.06Z" transform="translate(-103.579 -0.682)" fill="#3f3d56"/>
    <path id="Path_1539" data-name="Path 1539" d="M177.826,10.338a.624.624,0,0,1-.446-1.06l3.133-3.2-3.133-3.2A.624.624,0,0,1,178.272,2l3.56,3.639a.624.624,0,0,1,0,.872l-3.56,3.639a.622.622,0,0,1-.446.188Z" transform="translate(-109.331 -0.682)" fill="#3f3d56"/>
    <path id="Path_1540" data-name="Path 1540" d="M471.9,1h-6.62a1.366,1.366,0,0,0-1.366,1.366V8.993a1.366,1.366,0,0,0,1.366,1.366h6.62a1.371,1.371,0,0,0,1.373-1.366V2.367A1.371,1.371,0,0,0,471.9,1Z" transform="translate(-217.162 -0.376)" fill="#3f3d56"/>
    <path id="Path_1541" data-name="Path 1541" d="M445.9,1h-6.62a1.366,1.366,0,0,0-1.366,1.366V8.993a1.366,1.366,0,0,0,1.366,1.366h6.62a1.371,1.371,0,0,0,1.373-1.366V2.367A1.371,1.371,0,0,0,445.9,1Z" transform="translate(-207.383 -0.376)" fill="#3f3d56"/>
    <path id="Path_1542" data-name="Path 1542" d="M496.4,1.5h-6.62a1.366,1.366,0,0,0-1.366,1.366V9.493a1.366,1.366,0,0,0,1.366,1.366h6.62a1.371,1.371,0,0,0,1.373-1.366V2.867A1.371,1.371,0,0,0,496.4,1.5Z" transform="translate(-226.376 -0.564)" fill="#3f3d56"/>
    <path id="Path_1543" data-name="Path 1543" d="M308.389,5.541H255.476a1.666,1.666,0,1,0,0,3.332h52.913a1.666,1.666,0,0,0,0-3.332Z" transform="translate(-138.143 -2.084)" fill="#3f3d56"/>
  </g>
</svg>
